
<svg
  version="1.0"
  xmlns="http://www.w3.org/2000/svg"
  xmlns:xlink="http://www.w3.org/1999/xlink"
  width="2400"
  height="1800"
>
  
  <rect
    x="0"
    y="0"
    width="100%"
    height="100%"
    fill="#0a5694"
    fill-opacity="1"
  ></rect>
  <svg
    version="1.0"
    xmlns="http://www.w3.org/2000/svg"
    xmlns:xlink="http://www.w3.org/1999/xlink"
    x="0"
    y="0"
    width="2400"
    height="1800"
    viewBox="0 0 340.000000 250.000000"
    preserveAspectRatio="xMidYMid meet"
    color-interpolation-filters="sRGB"
  >
    <defs><linearGradient id="92" x1="0%" y1="0%" x2="100%" y2="0%"><stop offset="0%" stop-color="#fa71cd"/> <stop offset="100%" stop-color="#9b59b6"/></linearGradient><linearGradient id="93" x1="0%" y1="0%" x2="100%" y2="0%"><stop offset="0%" stop-color="#f9d423"/> <stop offset="100%" stop-color="#f83600"/></linearGradient><linearGradient id="94" x1="0%" y1="0%" x2="100%" y2="0%"><stop offset="0%" stop-color="#0064d2"/> <stop offset="100%" stop-color="#1cb0f6"/></linearGradient><linearGradient id="95" x1="0%" y1="0%" x2="100%" y2="0%"><stop offset="0%" stop-color="#f00978"/> <stop offset="100%" stop-color="#3f51b1"/></linearGradient><linearGradient id="96" x1="0%" y1="0%" x2="100%" y2="0%"><stop offset="0%" stop-color="#7873f5"/> <stop offset="100%" stop-color="#ec77ab"/></linearGradient><linearGradient id="97" x1="0%" y1="0%" x2="100%" y2="0%"><stop offset="0%" stop-color="#f9d423"/> <stop offset="100%" stop-color="#e14fad"/></linearGradient><linearGradient id="98" x1="0%" y1="0%" x2="100%" y2="0%"><stop offset="0%" stop-color="#009efd"/> <stop offset="100%" stop-color="#2af598"/></linearGradient><linearGradient id="99" x1="0%" y1="0%" x2="100%" y2="0%"><stop offset="0%" stop-color="#ffcc00"/> <stop offset="100%" stop-color="#00b140"/></linearGradient><linearGradient id="100" x1="0%" y1="0%" x2="100%" y2="0%"><stop offset="0%" stop-color="#d51007"/> <stop offset="100%" stop-color="#ff8177"/></linearGradient><linearGradient id="102" x1="0%" y1="0%" x2="100%" y2="0%"><stop offset="0%" stop-color="#a2b6df"/> <stop offset="100%" stop-color="#0c3483"/></linearGradient><linearGradient id="103" x1="0%" y1="0%" x2="100%" y2="0%"><stop offset="0%" stop-color="#7ac5d8"/> <stop offset="100%" stop-color="#eea2a2"/></linearGradient><linearGradient id="104" x1="0%" y1="0%" x2="100%" y2="0%"><stop offset="0%" stop-color="#00ecbc"/> <stop offset="100%" stop-color="#007adf"/></linearGradient><linearGradient id="105" x1="0%" y1="0%" x2="100%" y2="0%"><stop offset="0%" stop-color="#b88746"/> <stop offset="100%" stop-color="#fdf5a6"/></linearGradient></defs> <g fill="#ffffff" class="icon-text-wrapper icon-svg-group iconsvg" transform="translate(83.33499908447266,81.52076721191406)"><g class="iconsvg-imagesvg" transform="translate(49.665000915527344,0)"><g><rect fill="#ffffff" fill-opacity="0" stroke-width="2" x="0" y="0" width="60.00000000000001" height="51.668460710441344" class="image-rect"/> <svg filter="url(#colors5919762218)" x="0" y="0" width="60.00000000000001" height="51.668460710441344" filtersec="colorsf2866760203" class="image-svg-svg primary" style="overflow: visible;"><svg xmlns:dc="http://purl.org/dc/elements/1.1/" xmlns:cc="http://creativecommons.org/ns#" xmlns:rdf="http://www.w3.org/1999/02/22-rdf-syntax-ns#" xmlns:svg="http://www.w3.org/2000/svg" xmlns="http://www.w3.org/2000/svg" xmlns:sodipodi="http://sodipodi.sourceforge.net/DTD/sodipodi-0.dtd" xmlns:inkscape="http://www.inkscape.org/namespaces/inkscape" version="1.1" x="0px" y="0px" viewBox="14 18.997802734375 72.00001525878906 62.002197265625"><g d-rs="4" transform="matrix(-1,0,0,1,100,0)"><g transform="translate(0,-952.36215)"><path d="M 15.8125 19 A 2.0002 2.0001291 0 0 0 14 21 L 14 79 A 2.0002 2.0001291 0 0 0 16 81 L 40 81 A 2.0002 2.0001291 0 0 0 42 79 L 42 69 C 42 64.5335 45.533406 61 50 61 C 54.466594 61 58 64.5335 58 69 L 58 79 A 2.0002 2.0001291 0 0 0 60 81 L 84 81 A 2.0002 2.0001291 0 0 0 86 79 L 86 21 A 2.0002 2.0001291 0 0 0 84 19 L 72 19 A 2.0002 2.0001291 0 0 0 70 21 L 70 33 L 58 33 L 58 21 A 2.0002 2.0001291 0 0 0 56 19 L 44 19 A 2.0002 2.0001291 0 0 0 42 21 L 42 33 L 30 33 L 30 21 A 2.0002 2.0001291 0 0 0 28 19 L 16 19 A 2.0002 2.0001291 0 0 0 15.8125 19 z M 18 23 L 26 23 L 26 35 A 2.0002 2.0001291 0 0 0 28 37 L 44 37 A 2.0002 2.0001291 0 0 0 46 35 L 46 23 L 54 23 L 54 35 A 2.0002 2.0001291 0 0 0 56 37 L 72 37 A 2.0002 2.0001291 0 0 0 74 35 L 74 23 L 82 23 L 82 77 L 62 77 L 62 69 C 62 62.3867 56.613406 57 50 57 C 43.386594 57 38 62.3867 38 69 L 38 77 L 18 77 L 18 23 z " transform="translate(0,952.36215)" fill-opacity="1" stroke="none" marker="none" visibility="visible" display="inline" overflow="visible"/></g></g></svg></svg> <defs><filter id="colors5919762218"><feColorMatrix type="matrix" values="0 0 0 0 0.99609375  0 0 0 0 0.99609375  0 0 0 0 0.99609375  0 0 0 1 0" class="icon-feColorMatrix "/></filter> <filter id="colorsf2866760203"><feColorMatrix type="matrix" values="0 0 0 0 0.99609375  0 0 0 0 0.99609375  0 0 0 0 0.99609375  0 0 0 1 0" class="icon-fecolormatrix"/></filter> <filter id="colorsb6925939841"><feColorMatrix type="matrix" values="0 0 0 0 0  0 0 0 0 0  0 0 0 0 0  0 0 0 1 0" class="icon-fecolormatrix"/></filter></defs></g></g> <g transform="translate(0,60.668460845947266)"><g fill-rule="" class="tp-name iconsvg-namesvg"><g transform="scale(1)"><g><path d="M0.87-8.7Q0.87-11.27 2.03-13.29 3.18-15.32 5.19-16.45 7.19-17.58 9.67-17.58L9.67-17.58Q12.58-17.58 14.77-16.09 16.96-14.6 17.83-11.96L17.83-11.96 13.83-11.96Q13.23-13.21 12.15-13.83 11.07-14.45 9.65-14.45L9.65-14.45Q8.13-14.45 6.95-13.74 5.77-13.03 5.11-11.74 4.45-10.44 4.45-8.7L4.45-8.7Q4.45-6.99 5.11-5.68 5.77-4.38 6.95-3.67 8.13-2.96 9.65-2.96L9.65-2.96Q11.07-2.96 12.15-3.59 13.23-4.23 13.83-5.47L13.83-5.47 17.83-5.47Q16.96-2.81 14.78-1.33 12.61 0.15 9.67 0.15L9.67 0.15Q7.19 0.15 5.19-0.98 3.18-2.11 2.03-4.13 0.87-6.14 0.87-8.7L0.87-8.7ZM22.58-15.42Q21.66-15.42 21.05-16 20.44-16.59 20.44-17.46L20.44-17.46Q20.44-18.33 21.05-18.91 21.66-19.5 22.58-19.5L22.58-19.5Q23.5-19.5 24.11-18.91 24.72-18.33 24.72-17.46L24.72-17.46Q24.72-16.59 24.11-16 23.5-15.42 22.58-15.42L22.58-15.42ZM20.81-13.78L24.3-13.78 24.3 0 20.81 0 20.81-13.78ZM29.99-13.78L33.47-3.21 36.95-13.78 40.66-13.78 35.56 0 31.33 0 26.26-13.78 29.99-13.78ZM44.39-15.42Q43.47-15.42 42.86-16 42.25-16.59 42.25-17.46L42.25-17.46Q42.25-18.33 42.86-18.91 43.47-19.5 44.39-19.5L44.39-19.5Q45.31-19.5 45.92-18.91 46.53-18.33 46.53-17.46L46.53-17.46Q46.53-16.59 45.92-16 45.31-15.42 44.39-15.42L44.39-15.42ZM42.62-13.78L46.11-13.78 46.11 0 42.62 0 42.62-13.78ZM48.64-6.89Q48.64-9.03 49.51-10.63 50.38-12.24 51.93-13.12 53.47-14 55.46-14L55.46-14Q58.02-14 59.7-12.72 61.38-11.44 61.95-9.13L61.95-9.13 58.19-9.13Q57.89-10.02 57.18-10.53 56.48-11.04 55.43-11.04L55.43-11.04Q53.94-11.04 53.07-9.96 52.2-8.88 52.2-6.89L52.2-6.89Q52.2-4.92 53.07-3.84 53.94-2.76 55.43-2.76L55.43-2.76Q57.55-2.76 58.19-4.65L58.19-4.65 61.95-4.65Q61.38-2.41 59.68-1.09 57.99 0.22 55.46 0.22L55.46 0.22Q53.47 0.22 51.93-0.66 50.38-1.54 49.51-3.15 48.64-4.75 48.64-6.89L48.64-6.89ZM88.06 0L83.78 0 81.89-1.87Q79.48 0.3 76 0.3L76 0.3Q74.08 0.3 72.63-0.36 71.17-1.02 70.38-2.23 69.58-3.43 69.58-5.02L69.58-5.02Q69.58-6.74 70.55-8.11 71.52-9.47 73.41-10.32L73.41-10.32Q72.74-11.14 72.44-11.9 72.14-12.66 72.14-13.53L72.14-13.53Q72.14-14.72 72.76-15.68 73.39-16.64 74.54-17.18 75.7-17.73 77.24-17.73L77.24-17.73Q78.81-17.73 79.93-17.13 81.05-16.54 81.59-15.54 82.14-14.55 82.07-13.33L82.07-13.33 78.68-13.33Q78.71-14.15 78.29-14.59 77.86-15.02 77.14-15.02L77.14-15.02Q76.45-15.02 75.99-14.61 75.53-14.2 75.53-13.55L75.53-13.55Q75.53-12.93 75.9-12.32 76.27-11.71 77.12-10.82L77.12-10.82 81.49-6.49Q81.54-6.54 81.57-6.59 81.59-6.64 81.62-6.69L81.62-6.69 83.04-9.05 86.67-9.05 84.93-5.99Q84.43-5.02 83.86-4.15L83.86-4.15 88.06 0ZM76.1-2.59Q78.14-2.59 79.7-4.03L79.7-4.03 75.43-8.26Q73.01-7.19 73.01-5.22L73.01-5.22Q73.01-4.1 73.86-3.34 74.7-2.59 76.1-2.59L76.1-2.59ZM101.76-17.36Q104.5-17.36 106.57-16.29 108.65-15.22 109.78-13.24 110.91-11.27 110.91-8.65L110.91-8.65Q110.91-6.04 109.78-4.09 108.65-2.14 106.57-1.07 104.5 0 101.76 0L101.76 0 95.69 0 95.69-17.36 101.76-17.36ZM101.64-2.96Q104.37-2.96 105.86-4.45 107.36-5.94 107.36-8.65L107.36-8.65Q107.36-11.36 105.86-12.89 104.37-14.42 101.64-14.42L101.64-14.42 99.17-14.42 99.17-2.96 101.64-2.96ZM115.29-15.42Q114.37-15.42 113.76-16 113.15-16.59 113.15-17.46L113.15-17.46Q113.15-18.33 113.76-18.91 114.37-19.5 115.29-19.5L115.29-19.5Q116.21-19.5 116.82-18.91 117.43-18.33 117.43-17.46L117.43-17.46Q117.43-16.59 116.82-16 116.21-15.42 115.29-15.42L115.29-15.42ZM113.52-13.78L117.01-13.78 117.01 0 113.52 0 113.52-13.78ZM125.83-14Q127.38-14 128.54-13.39 129.71-12.78 130.38-11.81L130.38-11.81 130.38-13.78 133.89-13.78 133.89 0.1Q133.89 2.01 133.12 3.52 132.35 5.02 130.81 5.91 129.27 6.79 127.08 6.79L127.08 6.79Q124.14 6.79 122.27 5.42 120.39 4.05 120.14 1.69L120.14 1.69 123.6 1.69Q123.87 2.64 124.78 3.2 125.68 3.76 126.98 3.76L126.98 3.76Q128.49 3.76 129.44 2.85 130.38 1.94 130.38 0.1L130.38 0.1 130.38-2.04Q129.71-1.07 128.53-0.42 127.35 0.22 125.83 0.22L125.83 0.22Q124.09 0.22 122.65-0.67 121.21-1.57 120.38-3.2 119.54-4.82 119.54-6.94L119.54-6.94Q119.54-9.03 120.38-10.64 121.21-12.26 122.64-13.13 124.07-14 125.83-14L125.83-14ZM130.38-6.89Q130.38-8.16 129.89-9.06 129.39-9.97 128.54-10.46 127.7-10.94 126.73-10.94L126.73-10.94Q125.76-10.94 124.94-10.47 124.12-10 123.61-9.09 123.1-8.18 123.1-6.94L123.1-6.94Q123.1-5.69 123.61-4.76 124.12-3.83 124.95-3.33 125.78-2.83 126.73-2.83L126.73-2.83Q127.7-2.83 128.54-3.32 129.39-3.8 129.89-4.71 130.38-5.62 130.38-6.89L130.38-6.89ZM139.06-15.42Q138.14-15.42 137.53-16 136.93-16.59 136.93-17.46L136.93-17.46Q136.93-18.33 137.53-18.91 138.14-19.5 139.06-19.5L139.06-19.5Q139.98-19.5 140.59-18.91 141.2-18.33 141.2-17.46L141.2-17.46Q141.2-16.59 140.59-16 139.98-15.42 139.06-15.42L139.06-15.42ZM137.3-13.78L140.78-13.78 140.78 0 137.3 0 137.3-13.78ZM151.35-10.92L148.27-10.92 148.27-4.25Q148.27-3.56 148.6-3.25 148.94-2.93 149.73-2.93L149.73-2.93 151.35-2.93 151.35 0 149.16 0Q144.76 0 144.76-4.28L144.76-4.28 144.76-10.92 143.12-10.92 143.12-13.78 144.76-13.78 144.76-17.18 148.27-17.18 148.27-13.78 151.35-13.78 151.35-10.92ZM152.97-6.94Q152.97-9.03 153.8-10.64 154.63-12.26 156.06-13.13 157.49-14 159.26-14L159.26-14Q160.8-14 161.96-13.38 163.11-12.76 163.81-11.81L163.81-11.81 163.81-13.78 167.31-13.78 167.31 0 163.81 0 163.81-2.01Q163.14-1.04 161.96-0.41 160.77 0.22 159.23 0.22L159.23 0.22Q157.49 0.22 156.06-0.67 154.63-1.57 153.8-3.2 152.97-4.82 152.97-6.94L152.97-6.94ZM163.81-6.89Q163.81-8.16 163.31-9.06 162.81-9.97 161.97-10.46 161.12-10.94 160.15-10.94L160.15-10.94Q159.18-10.94 158.36-10.47 157.54-10 157.03-9.09 156.52-8.18 156.52-6.94L156.52-6.94Q156.52-5.69 157.03-4.76 157.54-3.83 158.37-3.33 159.21-2.83 160.15-2.83L160.15-2.83Q161.12-2.83 161.97-3.32 162.81-3.8 163.31-4.71 163.81-5.62 163.81-6.89L163.81-6.89ZM170.72-18.4L174.2-18.4 174.2 0 170.72 0 170.72-18.4Z" transform="translate(-0.8700000047683716, 19.5)"/></g> </g></g> </g></g><defs v-gra="od"/>
  </svg>
</svg>


